<svg xmlns="http://www.w3.org/2000/svg" viewBox="0 0 459.6 210.88"><defs><style>.cls-1{font-size:83.02px;font-family:Impact;letter-spacing:0em;}.cls-2{fill:#39b54a;}</style></defs><g id="Layer_2" data-name="Layer 2"><g id="Layer_1-2" data-name="Layer 1"><text class="cls-1" transform="translate(5.89 183.44)">Moto <tspan class="cls-2" x="183.92" y="0">Vibe</tspan></text></g><g id="Layer_2-2" data-name="Layer 2"><path d="M0,66.1S26.6,37,89.14,60.61c51.29,16.18,83.38-10.42,83.38-10.42s48.27-32.37,80.91-18.93,17.28,48.28-15.36,46.9c0,0,22.49-14.53,7.4-27.7s-48.54,4.94-48.54,4.94S149.75,81.73,133.3,82.55s-23.86,2.75-51.57-8.77S35.93,50.46,0,66.1Z"/></g><g id="Layer_3" data-name="Layer 3"><path d="M191.72,15.08s40.59-38.12,84.2,6.86,98.19,100,98.19,100l10.15,12.22s-12.07-2.75-23-14.27C347.78,108.33,271.53,31.31,267.14,28S234.5.27,191.72,15.08Z"/></g><g id="Layer_4" data-name="Layer 4"><path d="M289.63,26.05s12.62-18.1,33.19-14l-3,31.55s-24.13-.83-28.8-12.07c0,0,11.25,6.83,20.3,6.58L312.67,20S305.91,18.27,289.63,26.05Z"/></g><g id="Layer_5" data-name="Layer 5"><path d="M390.51,67.11a69.1,69.1,0,0,0-65.64,47.51,53.17,53.17,0,1,1,21.23,74.49,69.08,69.08,0,1,0,44.41-122Z"/></g></g></svg>